<mxfile host="app.diagrams.net" agent="Mozilla/5.0 (Macintosh; Intel Mac OS X 10_15_7) AppleWebKit/537.36 (KHTML, like Gecko) Chrome/129.0.0.0 Safari/537.36" version="24.7.17">
  <diagram name="Page-1" id="b5b7bab2-c9e2-2cf4-8b2a-24fd1a2a6d21">
    <mxGraphModel dx="2106" dy="2141" grid="1" gridSize="10" guides="1" tooltips="1" connect="1" arrows="1" fold="1" page="1" pageScale="1" pageWidth="827" pageHeight="1169" background="none" math="0" shadow="0">
      <root>
        <mxCell id="0" />
        <mxCell id="1" parent="0" />
        <mxCell id="XC88yVqflEbdY16PXB-i-9" value="&lt;font style=&quot;font-size: 14px;&quot;&gt;Postfix&lt;/font&gt;" style="html=1;dropTarget=0;whiteSpace=wrap;" parent="1" vertex="1">
          <mxGeometry x="520" y="-250" width="180" height="90" as="geometry" />
        </mxCell>
        <mxCell id="XC88yVqflEbdY16PXB-i-10" value="" style="shape=module;jettyWidth=8;jettyHeight=4;" parent="XC88yVqflEbdY16PXB-i-9" vertex="1">
          <mxGeometry x="1" width="20" height="20" relative="1" as="geometry">
            <mxPoint x="-27" y="7" as="offset" />
          </mxGeometry>
        </mxCell>
        <mxCell id="XC88yVqflEbdY16PXB-i-11" value="&lt;font style=&quot;font-size: 14px;&quot;&gt;Database&lt;/font&gt;" style="html=1;dropTarget=0;whiteSpace=wrap;" parent="1" vertex="1">
          <mxGeometry x="730" y="-250" width="180" height="90" as="geometry" />
        </mxCell>
        <mxCell id="XC88yVqflEbdY16PXB-i-12" value="" style="shape=module;jettyWidth=8;jettyHeight=4;" parent="XC88yVqflEbdY16PXB-i-11" vertex="1">
          <mxGeometry x="1" width="20" height="20" relative="1" as="geometry">
            <mxPoint x="-27" y="7" as="offset" />
          </mxGeometry>
        </mxCell>
        <mxCell id="XC88yVqflEbdY16PXB-i-13" value="&lt;font style=&quot;font-size: 14px;&quot;&gt;Keycloak&lt;/font&gt;" style="html=1;dropTarget=0;whiteSpace=wrap;verticalAlign=bottom;" parent="1" vertex="1">
          <mxGeometry x="50" y="-300" width="430" height="190" as="geometry" />
        </mxCell>
        <mxCell id="XC88yVqflEbdY16PXB-i-14" value="" style="shape=module;jettyWidth=8;jettyHeight=4;" parent="XC88yVqflEbdY16PXB-i-13" vertex="1">
          <mxGeometry x="1" width="20" height="20" relative="1" as="geometry">
            <mxPoint x="-27" y="7" as="offset" />
          </mxGeometry>
        </mxCell>
        <mxCell id="XC88yVqflEbdY16PXB-i-15" value="&lt;font style=&quot;font-size: 14px;&quot;&gt;Authentication&lt;/font&gt;" style="html=1;dropTarget=0;whiteSpace=wrap;" parent="1" vertex="1">
          <mxGeometry x="70" y="-250" width="180" height="90" as="geometry" />
        </mxCell>
        <mxCell id="XC88yVqflEbdY16PXB-i-16" value="" style="shape=module;jettyWidth=8;jettyHeight=4;" parent="XC88yVqflEbdY16PXB-i-15" vertex="1">
          <mxGeometry x="1" width="20" height="20" relative="1" as="geometry">
            <mxPoint x="-27" y="7" as="offset" />
          </mxGeometry>
        </mxCell>
        <mxCell id="XC88yVqflEbdY16PXB-i-17" value="&lt;font style=&quot;font-size: 14px;&quot;&gt;ThesisTrack Client&lt;/font&gt;" style="html=1;dropTarget=0;whiteSpace=wrap;verticalAlign=bottom;" parent="1" vertex="1">
          <mxGeometry x="50" y="-20" width="280" height="490" as="geometry" />
        </mxCell>
        <mxCell id="XC88yVqflEbdY16PXB-i-18" value="" style="shape=module;jettyWidth=8;jettyHeight=4;" parent="XC88yVqflEbdY16PXB-i-17" vertex="1">
          <mxGeometry x="1" width="20" height="20" relative="1" as="geometry">
            <mxPoint x="-27" y="7" as="offset" />
          </mxGeometry>
        </mxCell>
        <mxCell id="XC88yVqflEbdY16PXB-i-19" value="&lt;font style=&quot;font-size: 14px;&quot;&gt;ThesisTrack Server&lt;/font&gt;" style="html=1;dropTarget=0;whiteSpace=wrap;verticalAlign=bottom;" parent="1" vertex="1">
          <mxGeometry x="470" y="-15" width="650" height="485" as="geometry" />
        </mxCell>
        <mxCell id="XC88yVqflEbdY16PXB-i-20" value="" style="shape=module;jettyWidth=8;jettyHeight=4;" parent="XC88yVqflEbdY16PXB-i-19" vertex="1">
          <mxGeometry x="1" width="20" height="20" relative="1" as="geometry">
            <mxPoint x="-27" y="7" as="offset" />
          </mxGeometry>
        </mxCell>
        <mxCell id="XC88yVqflEbdY16PXB-i-21" value="&lt;font style=&quot;font-size: 14px;&quot;&gt;WebCal&lt;/font&gt;" style="html=1;dropTarget=0;whiteSpace=wrap;" parent="1" vertex="1">
          <mxGeometry x="940" y="-250" width="180" height="90" as="geometry" />
        </mxCell>
        <mxCell id="XC88yVqflEbdY16PXB-i-22" value="" style="shape=module;jettyWidth=8;jettyHeight=4;" parent="XC88yVqflEbdY16PXB-i-21" vertex="1">
          <mxGeometry x="1" width="20" height="20" relative="1" as="geometry">
            <mxPoint x="-27" y="7" as="offset" />
          </mxGeometry>
        </mxCell>
        <mxCell id="XC88yVqflEbdY16PXB-i-23" value="&lt;font style=&quot;font-size: 14px;&quot;&gt;Administration&lt;/font&gt;" style="html=1;dropTarget=0;whiteSpace=wrap;" parent="1" vertex="1">
          <mxGeometry x="280" y="-250" width="180" height="90" as="geometry" />
        </mxCell>
        <mxCell id="XC88yVqflEbdY16PXB-i-24" value="" style="shape=module;jettyWidth=8;jettyHeight=4;" parent="XC88yVqflEbdY16PXB-i-23" vertex="1">
          <mxGeometry x="1" width="20" height="20" relative="1" as="geometry">
            <mxPoint x="-27" y="7" as="offset" />
          </mxGeometry>
        </mxCell>
        <mxCell id="dJfIL6a1no2LYSdCg49s-1" value="&lt;font style=&quot;font-size: 14px;&quot;&gt;Student Application&lt;/font&gt;" style="html=1;dropTarget=0;whiteSpace=wrap;" parent="1" vertex="1">
          <mxGeometry x="100" y="335" width="180" height="90" as="geometry" />
        </mxCell>
        <mxCell id="dJfIL6a1no2LYSdCg49s-2" value="" style="shape=module;jettyWidth=8;jettyHeight=4;" parent="dJfIL6a1no2LYSdCg49s-1" vertex="1">
          <mxGeometry x="1" width="20" height="20" relative="1" as="geometry">
            <mxPoint x="-27" y="7" as="offset" />
          </mxGeometry>
        </mxCell>
        <mxCell id="dJfIL6a1no2LYSdCg49s-3" value="&lt;font style=&quot;font-size: 14px;&quot;&gt;Thesis Management&lt;/font&gt;" style="html=1;dropTarget=0;whiteSpace=wrap;" parent="1" vertex="1">
          <mxGeometry x="100" y="100" width="180" height="90" as="geometry" />
        </mxCell>
        <mxCell id="dJfIL6a1no2LYSdCg49s-4" value="" style="shape=module;jettyWidth=8;jettyHeight=4;" parent="dJfIL6a1no2LYSdCg49s-3" vertex="1">
          <mxGeometry x="1" width="20" height="20" relative="1" as="geometry">
            <mxPoint x="-27" y="7" as="offset" />
          </mxGeometry>
        </mxCell>
        <mxCell id="dJfIL6a1no2LYSdCg49s-5" value="&lt;div&gt;&lt;span style=&quot;background-color: initial;&quot;&gt;&lt;font style=&quot;font-size: 14px;&quot;&gt;Application&lt;/font&gt;&lt;/span&gt;&lt;br&gt;&lt;/div&gt;" style="html=1;dropTarget=0;whiteSpace=wrap;" parent="1" vertex="1">
          <mxGeometry x="510" y="335" width="180" height="90" as="geometry" />
        </mxCell>
        <mxCell id="dJfIL6a1no2LYSdCg49s-6" value="" style="shape=module;jettyWidth=8;jettyHeight=4;" parent="dJfIL6a1no2LYSdCg49s-5" vertex="1">
          <mxGeometry x="1" width="20" height="20" relative="1" as="geometry">
            <mxPoint x="-27" y="7" as="offset" />
          </mxGeometry>
        </mxCell>
        <mxCell id="dJfIL6a1no2LYSdCg49s-20" style="edgeStyle=orthogonalEdgeStyle;rounded=0;orthogonalLoop=1;jettySize=auto;html=1;exitX=1;exitY=0.25;exitDx=0;exitDy=0;entryX=0;entryY=0.5;entryDx=0;entryDy=0;endArrow=classic;endFill=1;startArrow=classic;startFill=1;" parent="1" source="dJfIL6a1no2LYSdCg49s-7" target="dJfIL6a1no2LYSdCg49s-9" edge="1">
          <mxGeometry relative="1" as="geometry" />
        </mxCell>
        <mxCell id="dJfIL6a1no2LYSdCg49s-37" style="edgeStyle=orthogonalEdgeStyle;rounded=0;orthogonalLoop=1;jettySize=auto;html=1;exitX=1;exitY=0.5;exitDx=0;exitDy=0;entryX=0;entryY=0.5;entryDx=0;entryDy=0;startArrow=classic;startFill=1;" parent="1" source="dJfIL6a1no2LYSdCg49s-7" target="dJfIL6a1no2LYSdCg49s-35" edge="1">
          <mxGeometry relative="1" as="geometry" />
        </mxCell>
        <mxCell id="dJfIL6a1no2LYSdCg49s-38" style="edgeStyle=orthogonalEdgeStyle;rounded=0;orthogonalLoop=1;jettySize=auto;html=1;exitX=1;exitY=0.75;exitDx=0;exitDy=0;entryX=0;entryY=0.5;entryDx=0;entryDy=0;startArrow=classic;startFill=1;" parent="1" source="dJfIL6a1no2LYSdCg49s-7" target="dJfIL6a1no2LYSdCg49s-32" edge="1">
          <mxGeometry relative="1" as="geometry" />
        </mxCell>
        <mxCell id="dJfIL6a1no2LYSdCg49s-7" value="&lt;font style=&quot;font-size: 14px;&quot;&gt;Thesis&lt;/font&gt;" style="html=1;dropTarget=0;whiteSpace=wrap;" parent="1" vertex="1">
          <mxGeometry x="510" y="100" width="180" height="90" as="geometry" />
        </mxCell>
        <mxCell id="dJfIL6a1no2LYSdCg49s-8" value="" style="shape=module;jettyWidth=8;jettyHeight=4;" parent="dJfIL6a1no2LYSdCg49s-7" vertex="1">
          <mxGeometry x="1" width="20" height="20" relative="1" as="geometry">
            <mxPoint x="-27" y="7" as="offset" />
          </mxGeometry>
        </mxCell>
        <mxCell id="dJfIL6a1no2LYSdCg49s-9" value="&lt;font style=&quot;font-size: 14px;&quot;&gt;Presentation&lt;/font&gt;" style="html=1;dropTarget=0;whiteSpace=wrap;" parent="1" vertex="1">
          <mxGeometry x="780" width="180" height="90" as="geometry" />
        </mxCell>
        <mxCell id="dJfIL6a1no2LYSdCg49s-10" value="" style="shape=module;jettyWidth=8;jettyHeight=4;" parent="dJfIL6a1no2LYSdCg49s-9" vertex="1">
          <mxGeometry x="1" width="20" height="20" relative="1" as="geometry">
            <mxPoint x="-27" y="7" as="offset" />
          </mxGeometry>
        </mxCell>
        <mxCell id="dJfIL6a1no2LYSdCg49s-19" style="edgeStyle=orthogonalEdgeStyle;rounded=0;orthogonalLoop=1;jettySize=auto;html=1;exitX=0;exitY=0.5;exitDx=0;exitDy=0;entryX=1;entryY=0.5;entryDx=0;entryDy=0;" parent="1" source="dJfIL6a1no2LYSdCg49s-11" target="dJfIL6a1no2LYSdCg49s-5" edge="1">
          <mxGeometry relative="1" as="geometry" />
        </mxCell>
        <mxCell id="dJfIL6a1no2LYSdCg49s-11" value="&lt;font style=&quot;font-size: 14px;&quot;&gt;Topic&lt;/font&gt;" style="html=1;dropTarget=0;whiteSpace=wrap;" parent="1" vertex="1">
          <mxGeometry x="780" y="335" width="180" height="90" as="geometry" />
        </mxCell>
        <mxCell id="dJfIL6a1no2LYSdCg49s-12" value="" style="shape=module;jettyWidth=8;jettyHeight=4;" parent="dJfIL6a1no2LYSdCg49s-11" vertex="1">
          <mxGeometry x="1" width="20" height="20" relative="1" as="geometry">
            <mxPoint x="-27" y="7" as="offset" />
          </mxGeometry>
        </mxCell>
        <mxCell id="dJfIL6a1no2LYSdCg49s-17" style="edgeStyle=orthogonalEdgeStyle;rounded=0;orthogonalLoop=1;jettySize=auto;html=1;exitX=0;exitY=0.5;exitDx=0;exitDy=0;exitPerimeter=0;entryX=0;entryY=0.5;entryDx=0;entryDy=0;endArrow=none;endFill=0;" parent="1" source="dJfIL6a1no2LYSdCg49s-13" target="dJfIL6a1no2LYSdCg49s-5" edge="1">
          <mxGeometry relative="1" as="geometry" />
        </mxCell>
        <mxCell id="dJfIL6a1no2LYSdCg49s-18" style="edgeStyle=orthogonalEdgeStyle;rounded=0;orthogonalLoop=1;jettySize=auto;html=1;exitX=1;exitY=0.5;exitDx=0;exitDy=0;exitPerimeter=0;entryX=1;entryY=0.5;entryDx=0;entryDy=0;endArrow=none;endFill=0;" parent="1" source="dJfIL6a1no2LYSdCg49s-13" target="dJfIL6a1no2LYSdCg49s-1" edge="1">
          <mxGeometry relative="1" as="geometry" />
        </mxCell>
        <mxCell id="dJfIL6a1no2LYSdCg49s-13" value="&lt;font style=&quot;font-size: 14px;&quot;&gt;Application Data&lt;/font&gt;" style="shape=providedRequiredInterface;html=1;verticalLabelPosition=top;sketch=0;rotation=0;verticalAlign=bottom;fontSize=10;labelPosition=center;align=center;direction=west;flipH=0;" parent="1" vertex="1">
          <mxGeometry x="389" y="370" width="20" height="20" as="geometry" />
        </mxCell>
        <mxCell id="dJfIL6a1no2LYSdCg49s-15" value="" style="edgeStyle=orthogonalEdgeStyle;rounded=0;orthogonalLoop=1;jettySize=auto;html=1;endArrow=none;endFill=0;" parent="1" source="dJfIL6a1no2LYSdCg49s-14" target="dJfIL6a1no2LYSdCg49s-7" edge="1">
          <mxGeometry relative="1" as="geometry" />
        </mxCell>
        <mxCell id="dJfIL6a1no2LYSdCg49s-16" style="edgeStyle=orthogonalEdgeStyle;rounded=0;orthogonalLoop=1;jettySize=auto;html=1;exitX=1;exitY=0.5;exitDx=0;exitDy=0;exitPerimeter=0;entryX=1;entryY=0.5;entryDx=0;entryDy=0;endArrow=none;endFill=0;" parent="1" source="dJfIL6a1no2LYSdCg49s-14" target="dJfIL6a1no2LYSdCg49s-3" edge="1">
          <mxGeometry relative="1" as="geometry" />
        </mxCell>
        <mxCell id="dJfIL6a1no2LYSdCg49s-14" value="&lt;font style=&quot;font-size: 14px;&quot;&gt;Thesis Data&lt;/font&gt;" style="shape=providedRequiredInterface;html=1;verticalLabelPosition=top;sketch=0;rotation=0;horizontal=1;labelPosition=center;align=center;verticalAlign=bottom;fontSize=10;flipH=1;" parent="1" vertex="1">
          <mxGeometry x="389" y="135" width="20" height="20" as="geometry" />
        </mxCell>
        <mxCell id="dJfIL6a1no2LYSdCg49s-22" style="edgeStyle=orthogonalEdgeStyle;rounded=0;orthogonalLoop=1;jettySize=auto;html=1;exitX=0;exitY=0.5;exitDx=0;exitDy=0;exitPerimeter=0;entryX=0.5;entryY=1;entryDx=0;entryDy=0;endArrow=none;endFill=0;" parent="1" source="dJfIL6a1no2LYSdCg49s-21" target="XC88yVqflEbdY16PXB-i-15" edge="1">
          <mxGeometry relative="1" as="geometry" />
        </mxCell>
        <mxCell id="dJfIL6a1no2LYSdCg49s-21" value="&lt;font style=&quot;font-size: 14px;&quot;&gt;Authentication&lt;/font&gt;&lt;div style=&quot;font-size: 14px;&quot;&gt;&lt;font style=&quot;font-size: 14px;&quot;&gt;API&lt;/font&gt;&lt;/div&gt;" style="shape=providedRequiredInterface;html=1;verticalLabelPosition=middle;sketch=0;rotation=90;horizontal=0;labelPosition=center;align=center;verticalAlign=middle;spacingRight=112;fontSize=10;" parent="1" vertex="1">
          <mxGeometry x="150" y="-89" width="20" height="20" as="geometry" />
        </mxCell>
        <mxCell id="dJfIL6a1no2LYSdCg49s-23" style="edgeStyle=orthogonalEdgeStyle;rounded=0;orthogonalLoop=1;jettySize=auto;html=1;exitX=1;exitY=0.5;exitDx=0;exitDy=0;exitPerimeter=0;endArrow=none;endFill=0;" parent="1" source="dJfIL6a1no2LYSdCg49s-21" edge="1">
          <mxGeometry relative="1" as="geometry">
            <mxPoint x="160" y="-20" as="targetPoint" />
          </mxGeometry>
        </mxCell>
        <mxCell id="dJfIL6a1no2LYSdCg49s-24" style="edgeStyle=orthogonalEdgeStyle;rounded=0;orthogonalLoop=1;jettySize=auto;html=1;exitX=1;exitY=0.5;exitDx=0;exitDy=0;exitPerimeter=0;entryX=0.096;entryY=0;entryDx=0;entryDy=0;entryPerimeter=0;endArrow=none;endFill=0;" parent="1" source="dJfIL6a1no2LYSdCg49s-21" target="XC88yVqflEbdY16PXB-i-19" edge="1">
          <mxGeometry relative="1" as="geometry">
            <Array as="points">
              <mxPoint x="160" y="-50" />
              <mxPoint x="490" y="-50" />
              <mxPoint x="490" y="-15" />
            </Array>
          </mxGeometry>
        </mxCell>
        <mxCell id="dJfIL6a1no2LYSdCg49s-25" value="&lt;font style=&quot;font-size: 14px;&quot;&gt;Calendar&lt;/font&gt;&lt;div style=&quot;font-size: 14px;&quot;&gt;&lt;font style=&quot;font-size: 14px;&quot;&gt;API&lt;/font&gt;&lt;/div&gt;" style="shape=providedRequiredInterface;html=1;verticalLabelPosition=middle;sketch=0;rotation=90;horizontal=0;labelPosition=center;align=center;verticalAlign=middle;fontSize=10;spacingRight=81;" parent="1" vertex="1">
          <mxGeometry x="1020" y="-90" width="20" height="20" as="geometry" />
        </mxCell>
        <mxCell id="dJfIL6a1no2LYSdCg49s-26" value="&lt;font style=&quot;font-size: 14px;&quot;&gt;Mailing&lt;/font&gt;&lt;div style=&quot;font-size: 14px;&quot;&gt;&lt;font style=&quot;font-size: 14px;&quot;&gt;Service&lt;/font&gt;&lt;/div&gt;" style="shape=providedRequiredInterface;html=1;verticalLabelPosition=middle;sketch=0;rotation=90;labelPosition=center;align=center;verticalAlign=middle;horizontal=0;fontSize=10;spacingLeft=69;" parent="1" vertex="1">
          <mxGeometry x="600" y="-89" width="20" height="20" as="geometry" />
        </mxCell>
        <mxCell id="dJfIL6a1no2LYSdCg49s-27" value="&lt;font style=&quot;font-size: 14px;&quot;&gt;Persistence&lt;/font&gt;&lt;div style=&quot;font-size: 14px;&quot;&gt;&lt;span style=&quot;background-color: initial;&quot;&gt;&lt;font style=&quot;font-size: 14px;&quot;&gt;Service&lt;/font&gt;&lt;/span&gt;&lt;/div&gt;" style="shape=providedRequiredInterface;html=1;verticalLabelPosition=middle;sketch=0;rotation=90;align=center;verticalAlign=middle;horizontal=0;labelPosition=center;spacingRight=98;fontSize=10;" parent="1" vertex="1">
          <mxGeometry x="810" y="-89" width="20" height="20" as="geometry" />
        </mxCell>
        <mxCell id="dJfIL6a1no2LYSdCg49s-28" style="edgeStyle=orthogonalEdgeStyle;rounded=0;orthogonalLoop=1;jettySize=auto;html=1;exitX=0.5;exitY=1;exitDx=0;exitDy=0;entryX=0;entryY=0.5;entryDx=0;entryDy=0;entryPerimeter=0;endArrow=none;endFill=0;" parent="1" source="XC88yVqflEbdY16PXB-i-9" target="dJfIL6a1no2LYSdCg49s-26" edge="1">
          <mxGeometry relative="1" as="geometry" />
        </mxCell>
        <mxCell id="dJfIL6a1no2LYSdCg49s-29" style="edgeStyle=orthogonalEdgeStyle;rounded=0;orthogonalLoop=1;jettySize=auto;html=1;exitX=1;exitY=0.5;exitDx=0;exitDy=0;exitPerimeter=0;endArrow=none;endFill=0;entryX=0.216;entryY=0.001;entryDx=0;entryDy=0;entryPerimeter=0;" parent="1" source="dJfIL6a1no2LYSdCg49s-26" target="XC88yVqflEbdY16PXB-i-19" edge="1">
          <mxGeometry relative="1" as="geometry">
            <mxPoint x="610" y="-20" as="targetPoint" />
          </mxGeometry>
        </mxCell>
        <mxCell id="dJfIL6a1no2LYSdCg49s-30" style="edgeStyle=orthogonalEdgeStyle;rounded=0;orthogonalLoop=1;jettySize=auto;html=1;exitX=0.5;exitY=1;exitDx=0;exitDy=0;entryX=0;entryY=0.5;entryDx=0;entryDy=0;entryPerimeter=0;endArrow=none;endFill=0;" parent="1" source="XC88yVqflEbdY16PXB-i-11" target="dJfIL6a1no2LYSdCg49s-27" edge="1">
          <mxGeometry relative="1" as="geometry" />
        </mxCell>
        <mxCell id="dJfIL6a1no2LYSdCg49s-31" style="edgeStyle=orthogonalEdgeStyle;rounded=0;orthogonalLoop=1;jettySize=auto;html=1;exitX=1;exitY=0.5;exitDx=0;exitDy=0;exitPerimeter=0;entryX=0.539;entryY=0.001;entryDx=0;entryDy=0;entryPerimeter=0;endArrow=none;endFill=0;" parent="1" source="dJfIL6a1no2LYSdCg49s-27" target="XC88yVqflEbdY16PXB-i-19" edge="1">
          <mxGeometry relative="1" as="geometry" />
        </mxCell>
        <mxCell id="dJfIL6a1no2LYSdCg49s-32" value="&lt;font style=&quot;font-size: 14px;&quot;&gt;Assessment&lt;/font&gt;" style="html=1;dropTarget=0;whiteSpace=wrap;" parent="1" vertex="1">
          <mxGeometry x="780" y="200" width="180" height="90" as="geometry" />
        </mxCell>
        <mxCell id="dJfIL6a1no2LYSdCg49s-33" value="" style="shape=module;jettyWidth=8;jettyHeight=4;" parent="dJfIL6a1no2LYSdCg49s-32" vertex="1">
          <mxGeometry x="1" width="20" height="20" relative="1" as="geometry">
            <mxPoint x="-27" y="7" as="offset" />
          </mxGeometry>
        </mxCell>
        <mxCell id="dJfIL6a1no2LYSdCg49s-34" style="edgeStyle=orthogonalEdgeStyle;rounded=0;orthogonalLoop=1;jettySize=auto;html=1;exitX=0.5;exitY=1;exitDx=0;exitDy=0;entryX=0;entryY=0.5;entryDx=0;entryDy=0;entryPerimeter=0;endArrow=none;endFill=0;" parent="1" source="XC88yVqflEbdY16PXB-i-21" target="dJfIL6a1no2LYSdCg49s-25" edge="1">
          <mxGeometry relative="1" as="geometry" />
        </mxCell>
        <mxCell id="dJfIL6a1no2LYSdCg49s-35" value="&lt;font style=&quot;font-size: 14px;&quot;&gt;Proposal&lt;/font&gt;" style="html=1;dropTarget=0;whiteSpace=wrap;" parent="1" vertex="1">
          <mxGeometry x="780" y="100" width="180" height="90" as="geometry" />
        </mxCell>
        <mxCell id="dJfIL6a1no2LYSdCg49s-36" value="" style="shape=module;jettyWidth=8;jettyHeight=4;" parent="dJfIL6a1no2LYSdCg49s-35" vertex="1">
          <mxGeometry x="1" width="20" height="20" relative="1" as="geometry">
            <mxPoint x="-27" y="7" as="offset" />
          </mxGeometry>
        </mxCell>
        <mxCell id="dJfIL6a1no2LYSdCg49s-39" style="edgeStyle=orthogonalEdgeStyle;rounded=0;orthogonalLoop=1;jettySize=auto;html=1;exitX=1;exitY=0.5;exitDx=0;exitDy=0;entryX=1;entryY=0.5;entryDx=0;entryDy=0;entryPerimeter=0;endArrow=none;endFill=0;" parent="1" source="dJfIL6a1no2LYSdCg49s-9" target="dJfIL6a1no2LYSdCg49s-25" edge="1">
          <mxGeometry relative="1" as="geometry" />
        </mxCell>
        <mxCell id="dJfIL6a1no2LYSdCg49s-41" style="edgeStyle=orthogonalEdgeStyle;rounded=0;orthogonalLoop=1;jettySize=auto;html=1;exitX=1;exitY=0.5;exitDx=0;exitDy=0;exitPerimeter=0;endArrow=none;endFill=0;" parent="1" source="dJfIL6a1no2LYSdCg49s-40" edge="1">
          <mxGeometry relative="1" as="geometry">
            <mxPoint x="550" y="100" as="targetPoint" />
            <Array as="points">
              <mxPoint x="550" y="100" />
            </Array>
          </mxGeometry>
        </mxCell>
        <mxCell id="dJfIL6a1no2LYSdCg49s-40" value="&lt;font style=&quot;font-size: 14px;&quot;&gt;Manage&lt;/font&gt;&lt;div style=&quot;font-size: 14px;&quot;&gt;&lt;font style=&quot;font-size: 14px;&quot;&gt;Users API&lt;/font&gt;&lt;/div&gt;" style="shape=providedRequiredInterface;html=1;verticalLabelPosition=middle;sketch=0;rotation=90;horizontal=0;fontSize=10;labelPosition=center;align=center;verticalAlign=middle;spacingRight=86;" parent="1" vertex="1">
          <mxGeometry x="540" y="-90" width="20" height="20" as="geometry" />
        </mxCell>
        <mxCell id="dJfIL6a1no2LYSdCg49s-42" style="edgeStyle=orthogonalEdgeStyle;rounded=0;orthogonalLoop=1;jettySize=auto;html=1;exitX=0.5;exitY=1;exitDx=0;exitDy=0;entryX=0;entryY=0.5;entryDx=0;entryDy=0;entryPerimeter=0;endArrow=none;endFill=0;" parent="1" source="XC88yVqflEbdY16PXB-i-23" target="dJfIL6a1no2LYSdCg49s-40" edge="1">
          <mxGeometry relative="1" as="geometry" />
        </mxCell>
      </root>
    </mxGraphModel>
  </diagram>
</mxfile>
